%TF.GenerationSoftware,KiCad,Pcbnew,8.0.2*%
%TF.CreationDate,2024-06-01T15:04:53-05:00*%
%TF.ProjectId,KiCad Numpad,4b694361-6420-44e7-956d-7061642e6b69,rev?*%
%TF.SameCoordinates,Original*%
%TF.FileFunction,Copper,L1,Top*%
%TF.FilePolarity,Positive*%
%FSLAX46Y46*%
G04 Gerber Fmt 4.6, Leading zero omitted, Abs format (unit mm)*
G04 Created by KiCad (PCBNEW 8.0.2) date 2024-06-01 15:04:53*
%MOMM*%
%LPD*%
G01*
G04 APERTURE LIST*
%TA.AperFunction,ComponentPad*%
%ADD10C,2.300000*%
%TD*%
%TA.AperFunction,WasherPad*%
%ADD11C,3.150000*%
%TD*%
%TA.AperFunction,ComponentPad*%
%ADD12R,1.752600X1.752600*%
%TD*%
%TA.AperFunction,ComponentPad*%
%ADD13C,1.752600*%
%TD*%
%TA.AperFunction,Conductor*%
%ADD14C,0.200000*%
%TD*%
G04 APERTURE END LIST*
D10*
%TO.P,MX2,1,1*%
%TO.N,COL1*%
X124618750Y-76835000D03*
%TO.P,MX2,2,2*%
%TO.N,Net-(D2-A)*%
X130968750Y-74295000D03*
%TD*%
%TO.P,MX11,1,1*%
%TO.N,COL2*%
X138876250Y-114935000D03*
%TO.P,MX11,2,2*%
%TO.N,Net-(D11-A)*%
X145226250Y-112395000D03*
%TD*%
D11*
%TO.P,H1,*%
%TO.N,*%
X94297500Y-70643750D03*
%TD*%
D10*
%TO.P,MX6,1,1*%
%TO.N,COL1*%
X119850000Y-95885000D03*
%TO.P,MX6,2,2*%
%TO.N,Net-(D6-A)*%
X126200000Y-93345000D03*
%TD*%
%TO.P,MX10,1,1*%
%TO.N,COL1*%
X119850000Y-114935000D03*
%TO.P,MX10,2,2*%
%TO.N,Net-(D10-A)*%
X126200000Y-112395000D03*
%TD*%
%TO.P,MX3,1,1*%
%TO.N,COL3*%
X159300000Y-149922500D03*
%TO.P,MX3,2,2*%
%TO.N,Net-(D3-A)*%
X156760000Y-143572500D03*
%TD*%
%TO.P,MX16,1,1*%
%TO.N,COL2*%
X138906250Y-153035000D03*
%TO.P,MX16,2,2*%
%TO.N,Net-(D16-A)*%
X145256250Y-150495000D03*
%TD*%
D11*
%TO.P,H2,*%
%TO.N,*%
X192722500Y-70643750D03*
%TD*%
D10*
%TO.P,MX12,1,1*%
%TO.N,COL3*%
X157956250Y-95885000D03*
%TO.P,MX12,2,2*%
%TO.N,Net-(D12-A)*%
X164306250Y-93345000D03*
%TD*%
%TO.P,MX9,1,1*%
%TO.N,COL0*%
X100806250Y-114935000D03*
%TO.P,MX9,2,2*%
%TO.N,Net-(D9-A)*%
X107156250Y-112395000D03*
%TD*%
%TO.P,MX5,1,1*%
%TO.N,COL0*%
X100806250Y-95885000D03*
%TO.P,MX5,2,2*%
%TO.N,Net-(D5-A)*%
X107156250Y-93345000D03*
%TD*%
%TO.P,MX14,1,1*%
%TO.N,COL1*%
X119850000Y-133985000D03*
%TO.P,MX14,2,2*%
%TO.N,Net-(D14-A)*%
X126200000Y-131445000D03*
%TD*%
D11*
%TO.P,H3,*%
%TO.N,*%
X94297500Y-165100000D03*
%TD*%
D10*
%TO.P,MX8,1,1*%
%TO.N,COL3*%
X157956250Y-114935000D03*
%TO.P,MX8,2,2*%
%TO.N,Net-(D8-A)*%
X164306250Y-112395000D03*
%TD*%
D12*
%TO.P,U1,1,TX0/PD3*%
%TO.N,unconnected-(U1-TX0{slash}PD3-Pad1)*%
X173513750Y-73660000D03*
D13*
%TO.P,U1,2,RX1/PD2*%
%TO.N,unconnected-(U1-RX1{slash}PD2-Pad2)*%
X173513750Y-76200000D03*
%TO.P,U1,3,GND*%
%TO.N,unconnected-(U1-GND-Pad3)*%
X173513750Y-78740000D03*
%TO.P,U1,4,GND*%
%TO.N,unconnected-(U1-GND-Pad4)*%
X173513750Y-81280000D03*
%TO.P,U1,5,2/PD1*%
%TO.N,COL0*%
X173513750Y-83820000D03*
%TO.P,U1,6,3/PD0*%
%TO.N,COL1*%
X173513750Y-86360000D03*
%TO.P,U1,7,4/PD4*%
%TO.N,COL2*%
X173513750Y-88900000D03*
%TO.P,U1,8,5/PC6*%
%TO.N,COL3*%
X173513750Y-91440000D03*
%TO.P,U1,9,6/PD7*%
%TO.N,ROW0*%
X173513750Y-93980000D03*
%TO.P,U1,10,7/PE6*%
%TO.N,ROW1*%
X173513750Y-96520000D03*
%TO.P,U1,11,8/PB4*%
%TO.N,ROW2*%
X173513750Y-99060000D03*
%TO.P,U1,12,9/PB5*%
%TO.N,ROW3*%
X173513750Y-101600000D03*
%TO.P,U1,13,10/PB6*%
%TO.N,unconnected-(U1-10{slash}PB6-Pad13)*%
X188753750Y-101600000D03*
%TO.P,U1,14,16/PB2*%
%TO.N,unconnected-(U1-16{slash}PB2-Pad14)*%
X188753750Y-99060000D03*
%TO.P,U1,15,14/PB3*%
%TO.N,unconnected-(U1-14{slash}PB3-Pad15)*%
X188753750Y-96520000D03*
%TO.P,U1,16,15/PB1*%
%TO.N,unconnected-(U1-15{slash}PB1-Pad16)*%
X188753750Y-93980000D03*
%TO.P,U1,17,A0/PF7*%
%TO.N,unconnected-(U1-A0{slash}PF7-Pad17)*%
X188753750Y-91440000D03*
%TO.P,U1,18,A1/PF6*%
%TO.N,unconnected-(U1-A1{slash}PF6-Pad18)*%
X188753750Y-88900000D03*
%TO.P,U1,19,A2/PF5*%
%TO.N,unconnected-(U1-A2{slash}PF5-Pad19)*%
X188753750Y-86360000D03*
%TO.P,U1,20,A3/PF4*%
%TO.N,ROW4*%
X188753750Y-83820000D03*
%TO.P,U1,21,VCC*%
%TO.N,unconnected-(U1-VCC-Pad21)*%
X188753750Y-81280000D03*
%TO.P,U1,22,RST*%
%TO.N,unconnected-(U1-RST-Pad22)*%
X188753750Y-78740000D03*
%TO.P,U1,23,GND*%
%TO.N,unconnected-(U1-GND-Pad23)*%
X188753750Y-76200000D03*
%TO.P,U1,24,RAW*%
%TO.N,unconnected-(U1-RAW-Pad24)*%
X188753750Y-73660000D03*
%TD*%
D10*
%TO.P,MX7,1,1*%
%TO.N,COL2*%
X138876250Y-95885000D03*
%TO.P,MX7,2,2*%
%TO.N,Net-(D7-A)*%
X145226250Y-93345000D03*
%TD*%
%TO.P,MX13,1,1*%
%TO.N,COL0*%
X100800000Y-133985000D03*
%TO.P,MX13,2,2*%
%TO.N,Net-(D13-A)*%
X107150000Y-131445000D03*
%TD*%
D11*
%TO.P,H4,*%
%TO.N,*%
X192722500Y-165100000D03*
%TD*%
D10*
%TO.P,MX17,1,1*%
%TO.N,COL0*%
X110331250Y-153035000D03*
%TO.P,MX17,2,2*%
%TO.N,Net-(D17-A)*%
X116681250Y-150495000D03*
%TD*%
%TO.P,MX1,1,1*%
%TO.N,COL0*%
X100806250Y-76835000D03*
%TO.P,MX1,2,2*%
%TO.N,Net-(D1-A)*%
X107156250Y-74295000D03*
%TD*%
%TO.P,MX15,1,1*%
%TO.N,COL2*%
X138876250Y-133985000D03*
%TO.P,MX15,2,2*%
%TO.N,Net-(D15-A)*%
X145226250Y-131445000D03*
%TD*%
%TO.P,MX4,1,1*%
%TO.N,COL3*%
X153192500Y-76835000D03*
%TO.P,MX4,2,2*%
%TO.N,Net-(D4-A)*%
X159542500Y-74295000D03*
%TD*%
D14*
%TO.N,COL1*%
X166528750Y-79692500D02*
X166528750Y-71437500D01*
X119850000Y-96196250D02*
X120491250Y-96837500D01*
X119850000Y-95885000D02*
X119850000Y-96196250D01*
X122992405Y-76835000D02*
X119856250Y-79971155D01*
X124618750Y-76835000D02*
X130810000Y-70643750D01*
X166528750Y-71437500D02*
X165735000Y-70643750D01*
X119776250Y-133911250D02*
X119850000Y-133985000D01*
X120491250Y-114293750D02*
X119850000Y-114935000D01*
X119850000Y-114935000D02*
X119850000Y-133985000D01*
X165735000Y-70643750D02*
X130810000Y-70643750D01*
X119856250Y-79971155D02*
X119856250Y-95885000D01*
X119850000Y-133985000D02*
X120411250Y-134546250D01*
X119850000Y-95885000D02*
X119850000Y-114935000D01*
X166528750Y-79692500D02*
X173196250Y-86360000D01*
X124618750Y-76835000D02*
X122992405Y-76835000D01*
%TO.N,COL2*%
X138876250Y-133985000D02*
X138876250Y-95885000D01*
X138876250Y-153005000D02*
X138906250Y-153035000D01*
X146148750Y-71437500D02*
X164941250Y-71437500D01*
X165735000Y-81438750D02*
X173196250Y-88900000D01*
X165735000Y-72231250D02*
X165735000Y-81438750D01*
X164941250Y-71437500D02*
X165735000Y-72231250D01*
X138876250Y-133985000D02*
X138876250Y-153005000D01*
X138876250Y-78710000D02*
X146148750Y-71437500D01*
X138876250Y-95885000D02*
X138876250Y-78710000D01*
X138896250Y-95895000D02*
X138906250Y-95885000D01*
%TO.N,COL3*%
X157956250Y-114935000D02*
X157956250Y-95885000D01*
X153828750Y-91281250D02*
X153828750Y-91757500D01*
X153132500Y-76835000D02*
X153828750Y-77531250D01*
X159300000Y-116278750D02*
X157956250Y-114935000D01*
X159300000Y-149922500D02*
X159300000Y-116278750D01*
X173196250Y-91440000D02*
X153987500Y-91440000D01*
X153828750Y-77531250D02*
X153828750Y-91281250D01*
X153828750Y-91757500D02*
X157956250Y-95885000D01*
X153987500Y-91440000D02*
X153828750Y-91281250D01*
%TO.N,COL0*%
X100806250Y-133978750D02*
X100800000Y-133985000D01*
X100800000Y-133985000D02*
X100800000Y-143503750D01*
X167481250Y-77787500D02*
X167481250Y-70802500D01*
X166528750Y-69850000D02*
X107791250Y-69850000D01*
X167481250Y-70802500D02*
X166528750Y-69850000D01*
X100806250Y-76835000D02*
X100806250Y-133978750D01*
X173513750Y-83820000D02*
X167481250Y-77787500D01*
X100806250Y-76835000D02*
X107791250Y-69850000D01*
X100806250Y-76835000D02*
X100965000Y-76993750D01*
X100800000Y-143503750D02*
X110331250Y-153035000D01*
%TD*%
M02*
