%TF.GenerationSoftware,KiCad,Pcbnew,8.0.2*%
%TF.CreationDate,2024-06-01T15:04:53-05:00*%
%TF.ProjectId,KiCad Numpad,4b694361-6420-44e7-956d-7061642e6b69,rev?*%
%TF.SameCoordinates,Original*%
%TF.FileFunction,Soldermask,Bot*%
%TF.FilePolarity,Negative*%
%FSLAX46Y46*%
G04 Gerber Fmt 4.6, Leading zero omitted, Abs format (unit mm)*
G04 Created by KiCad (PCBNEW 8.0.2) date 2024-06-01 15:04:53*
%MOMM*%
%LPD*%
G01*
G04 APERTURE LIST*
G04 Aperture macros list*
%AMRoundRect*
0 Rectangle with rounded corners*
0 $1 Rounding radius*
0 $2 $3 $4 $5 $6 $7 $8 $9 X,Y pos of 4 corners*
0 Add a 4 corners polygon primitive as box body*
4,1,4,$2,$3,$4,$5,$6,$7,$8,$9,$2,$3,0*
0 Add four circle primitives for the rounded corners*
1,1,$1+$1,$2,$3*
1,1,$1+$1,$4,$5*
1,1,$1+$1,$6,$7*
1,1,$1+$1,$8,$9*
0 Add four rect primitives between the rounded corners*
20,1,$1+$1,$2,$3,$4,$5,0*
20,1,$1+$1,$4,$5,$6,$7,0*
20,1,$1+$1,$6,$7,$8,$9,0*
20,1,$1+$1,$8,$9,$2,$3,0*%
G04 Aperture macros list end*
%ADD10C,1.750000*%
%ADD11C,3.987800*%
%ADD12C,2.300000*%
%ADD13C,3.150000*%
%ADD14C,3.048000*%
%ADD15R,1.752600X1.752600*%
%ADD16C,1.752600*%
%ADD17RoundRect,0.225000X0.375000X-0.225000X0.375000X0.225000X-0.375000X0.225000X-0.375000X-0.225000X0*%
G04 APERTURE END LIST*
D10*
%TO.C,MX2*%
X123348750Y-79375000D03*
D11*
X128428750Y-79375000D03*
D10*
X133508750Y-79375000D03*
D12*
X124618750Y-76835000D03*
X130968750Y-74295000D03*
%TD*%
D10*
%TO.C,MX11*%
X137606250Y-117475000D03*
D11*
X142686250Y-117475000D03*
D10*
X147766250Y-117475000D03*
D12*
X138876250Y-114935000D03*
X145226250Y-112395000D03*
%TD*%
D13*
%TO.C,H1*%
X94297500Y-70643750D03*
%TD*%
D10*
%TO.C,MX6*%
X118580000Y-98425000D03*
D11*
X123660000Y-98425000D03*
D10*
X128740000Y-98425000D03*
D12*
X119850000Y-95885000D03*
X126200000Y-93345000D03*
%TD*%
D10*
%TO.C,MX10*%
X118580000Y-117475000D03*
D11*
X123660000Y-117475000D03*
D10*
X128740000Y-117475000D03*
D12*
X119850000Y-114935000D03*
X126200000Y-112395000D03*
%TD*%
D10*
%TO.C,MX3*%
X161840000Y-151192500D03*
D11*
X161840000Y-146112500D03*
D10*
X161840000Y-141032500D03*
D12*
X159300000Y-149922500D03*
X156760000Y-143572500D03*
%TD*%
D10*
%TO.C,MX16*%
X137636250Y-155575000D03*
D11*
X142716250Y-155575000D03*
D10*
X147796250Y-155575000D03*
D12*
X138906250Y-153035000D03*
X145256250Y-150495000D03*
%TD*%
D13*
%TO.C,H2*%
X192722500Y-70643750D03*
%TD*%
D10*
%TO.C,MX12*%
X156686250Y-98425000D03*
D11*
X161766250Y-98425000D03*
D10*
X166846250Y-98425000D03*
D12*
X157956250Y-95885000D03*
X164306250Y-93345000D03*
%TD*%
D10*
%TO.C,MX9*%
X99536250Y-117475000D03*
D11*
X104616250Y-117475000D03*
D10*
X109696250Y-117475000D03*
D12*
X100806250Y-114935000D03*
X107156250Y-112395000D03*
%TD*%
D10*
%TO.C,MX5*%
X99536250Y-98425000D03*
D11*
X104616250Y-98425000D03*
D10*
X109696250Y-98425000D03*
D12*
X100806250Y-95885000D03*
X107156250Y-93345000D03*
%TD*%
D10*
%TO.C,MX14*%
X118580000Y-136525000D03*
D11*
X123660000Y-136525000D03*
D10*
X128740000Y-136525000D03*
D12*
X119850000Y-133985000D03*
X126200000Y-131445000D03*
%TD*%
D13*
%TO.C,H3*%
X94297500Y-165100000D03*
%TD*%
D14*
%TO.C,S2*%
X154855000Y-158018750D03*
D11*
X170095000Y-158018750D03*
D14*
X154855000Y-134206250D03*
D11*
X170095000Y-134206250D03*
%TD*%
D10*
%TO.C,MX8*%
X156686250Y-117475000D03*
D11*
X161766250Y-117475000D03*
D10*
X166846250Y-117475000D03*
D12*
X157956250Y-114935000D03*
X164306250Y-112395000D03*
%TD*%
D15*
%TO.C,U1*%
X173513750Y-73660000D03*
D16*
X173513750Y-76200000D03*
X173513750Y-78740000D03*
X173513750Y-81280000D03*
X173513750Y-83820000D03*
X173513750Y-86360000D03*
X173513750Y-88900000D03*
X173513750Y-91440000D03*
X173513750Y-93980000D03*
X173513750Y-96520000D03*
X173513750Y-99060000D03*
X173513750Y-101600000D03*
X188753750Y-101600000D03*
X188753750Y-99060000D03*
X188753750Y-96520000D03*
X188753750Y-93980000D03*
X188753750Y-91440000D03*
X188753750Y-88900000D03*
X188753750Y-86360000D03*
X188753750Y-83820000D03*
X188753750Y-81280000D03*
X188753750Y-78740000D03*
X188753750Y-76200000D03*
X188753750Y-73660000D03*
%TD*%
D10*
%TO.C,MX7*%
X137606250Y-98425000D03*
D11*
X142686250Y-98425000D03*
D10*
X147766250Y-98425000D03*
D12*
X138876250Y-95885000D03*
X145226250Y-93345000D03*
%TD*%
D10*
%TO.C,MX13*%
X99530000Y-136525000D03*
D11*
X104610000Y-136525000D03*
D10*
X109690000Y-136525000D03*
D12*
X100800000Y-133985000D03*
X107150000Y-131445000D03*
%TD*%
D13*
%TO.C,H4*%
X192722500Y-165100000D03*
%TD*%
D10*
%TO.C,MX17*%
X109061250Y-155575000D03*
D11*
X114141250Y-155575000D03*
D10*
X119221250Y-155575000D03*
D12*
X110331250Y-153035000D03*
X116681250Y-150495000D03*
%TD*%
D10*
%TO.C,MX1*%
X99536250Y-79375000D03*
D11*
X104616250Y-79375000D03*
D10*
X109696250Y-79375000D03*
D12*
X100806250Y-76835000D03*
X107156250Y-74295000D03*
%TD*%
D10*
%TO.C,MX15*%
X137606250Y-136525000D03*
D11*
X142686250Y-136525000D03*
D10*
X147766250Y-136525000D03*
D12*
X138876250Y-133985000D03*
X145226250Y-131445000D03*
%TD*%
D10*
%TO.C,MX4*%
X151922500Y-79375000D03*
D11*
X157002500Y-79375000D03*
D10*
X162082500Y-79375000D03*
D12*
X153192500Y-76835000D03*
X159542500Y-74295000D03*
%TD*%
D14*
%TO.C,S3*%
X102235000Y-148590000D03*
D11*
X102235000Y-163830000D03*
D14*
X126047500Y-148590000D03*
D11*
X126047500Y-163830000D03*
%TD*%
D17*
%TO.C,D8*%
X169703750Y-123887500D03*
X169703750Y-120587500D03*
%TD*%
%TO.C,D2*%
X136525000Y-85787500D03*
X136525000Y-82487500D03*
%TD*%
%TO.C,D17*%
X122872500Y-157225000D03*
X122872500Y-153925000D03*
%TD*%
%TO.C,D7*%
X150812500Y-104837500D03*
X150812500Y-101537500D03*
%TD*%
%TO.C,D15*%
X150732500Y-142937500D03*
X150732500Y-139637500D03*
%TD*%
%TO.C,D16*%
X149860000Y-152462500D03*
X149860000Y-149162500D03*
%TD*%
%TO.C,D10*%
X131762500Y-123887500D03*
X131762500Y-120587500D03*
%TD*%
%TO.C,D6*%
X131762500Y-104837500D03*
X131762500Y-101537500D03*
%TD*%
%TO.C,D12*%
X169703750Y-104837500D03*
X169703750Y-101537500D03*
%TD*%
%TO.C,D5*%
X112712500Y-104837500D03*
X112712500Y-101537500D03*
%TD*%
%TO.C,D9*%
X112712500Y-123887500D03*
X112712500Y-120587500D03*
%TD*%
%TO.C,D13*%
X112632500Y-142937500D03*
X112632500Y-139637500D03*
%TD*%
%TO.C,D14*%
X131682500Y-142937500D03*
X131682500Y-139637500D03*
%TD*%
%TO.C,D11*%
X150812500Y-123887500D03*
X150812500Y-120587500D03*
%TD*%
%TO.C,D3*%
X153987500Y-152525000D03*
X153987500Y-149225000D03*
%TD*%
%TO.C,D1*%
X112712500Y-85787500D03*
X112712500Y-82487500D03*
%TD*%
%TO.C,D4*%
X165100000Y-85787500D03*
X165100000Y-82487500D03*
%TD*%
M02*
