%TF.GenerationSoftware,KiCad,Pcbnew,8.0.2*%
%TF.CreationDate,2024-06-01T15:04:53-05:00*%
%TF.ProjectId,KiCad Numpad,4b694361-6420-44e7-956d-7061642e6b69,rev?*%
%TF.SameCoordinates,Original*%
%TF.FileFunction,Soldermask,Top*%
%TF.FilePolarity,Negative*%
%FSLAX46Y46*%
G04 Gerber Fmt 4.6, Leading zero omitted, Abs format (unit mm)*
G04 Created by KiCad (PCBNEW 8.0.2) date 2024-06-01 15:04:53*
%MOMM*%
%LPD*%
G01*
G04 APERTURE LIST*
%ADD10C,1.750000*%
%ADD11C,3.987800*%
%ADD12C,3.150000*%
%ADD13C,3.048000*%
%ADD14R,1.752600X1.752600*%
%ADD15C,1.752600*%
G04 APERTURE END LIST*
D10*
%TO.C,MX2*%
X123348750Y-79375000D03*
D11*
X128428750Y-79375000D03*
D10*
X133508750Y-79375000D03*
%TD*%
%TO.C,MX11*%
X137606250Y-117475000D03*
D11*
X142686250Y-117475000D03*
D10*
X147766250Y-117475000D03*
%TD*%
D12*
%TO.C,H1*%
X94297500Y-70643750D03*
%TD*%
D10*
%TO.C,MX6*%
X118580000Y-98425000D03*
D11*
X123660000Y-98425000D03*
D10*
X128740000Y-98425000D03*
%TD*%
%TO.C,MX10*%
X118580000Y-117475000D03*
D11*
X123660000Y-117475000D03*
D10*
X128740000Y-117475000D03*
%TD*%
%TO.C,MX3*%
X161840000Y-151192500D03*
D11*
X161840000Y-146112500D03*
D10*
X161840000Y-141032500D03*
%TD*%
%TO.C,MX16*%
X137636250Y-155575000D03*
D11*
X142716250Y-155575000D03*
D10*
X147796250Y-155575000D03*
%TD*%
D12*
%TO.C,H2*%
X192722500Y-70643750D03*
%TD*%
D10*
%TO.C,MX12*%
X156686250Y-98425000D03*
D11*
X161766250Y-98425000D03*
D10*
X166846250Y-98425000D03*
%TD*%
%TO.C,MX9*%
X99536250Y-117475000D03*
D11*
X104616250Y-117475000D03*
D10*
X109696250Y-117475000D03*
%TD*%
%TO.C,MX5*%
X99536250Y-98425000D03*
D11*
X104616250Y-98425000D03*
D10*
X109696250Y-98425000D03*
%TD*%
%TO.C,MX14*%
X118580000Y-136525000D03*
D11*
X123660000Y-136525000D03*
D10*
X128740000Y-136525000D03*
%TD*%
D12*
%TO.C,H3*%
X94297500Y-165100000D03*
%TD*%
D13*
%TO.C,S2*%
X154855000Y-158018750D03*
D11*
X170095000Y-158018750D03*
D13*
X154855000Y-134206250D03*
D11*
X170095000Y-134206250D03*
%TD*%
D10*
%TO.C,MX8*%
X156686250Y-117475000D03*
D11*
X161766250Y-117475000D03*
D10*
X166846250Y-117475000D03*
%TD*%
D14*
%TO.C,U1*%
X173513750Y-73660000D03*
D15*
X173513750Y-76200000D03*
X173513750Y-78740000D03*
X173513750Y-81280000D03*
X173513750Y-83820000D03*
X173513750Y-86360000D03*
X173513750Y-88900000D03*
X173513750Y-91440000D03*
X173513750Y-93980000D03*
X173513750Y-96520000D03*
X173513750Y-99060000D03*
X173513750Y-101600000D03*
X188753750Y-101600000D03*
X188753750Y-99060000D03*
X188753750Y-96520000D03*
X188753750Y-93980000D03*
X188753750Y-91440000D03*
X188753750Y-88900000D03*
X188753750Y-86360000D03*
X188753750Y-83820000D03*
X188753750Y-81280000D03*
X188753750Y-78740000D03*
X188753750Y-76200000D03*
X188753750Y-73660000D03*
%TD*%
D10*
%TO.C,MX7*%
X137606250Y-98425000D03*
D11*
X142686250Y-98425000D03*
D10*
X147766250Y-98425000D03*
%TD*%
%TO.C,MX13*%
X99530000Y-136525000D03*
D11*
X104610000Y-136525000D03*
D10*
X109690000Y-136525000D03*
%TD*%
D12*
%TO.C,H4*%
X192722500Y-165100000D03*
%TD*%
D10*
%TO.C,MX17*%
X109061250Y-155575000D03*
D11*
X114141250Y-155575000D03*
D10*
X119221250Y-155575000D03*
%TD*%
%TO.C,MX1*%
X99536250Y-79375000D03*
D11*
X104616250Y-79375000D03*
D10*
X109696250Y-79375000D03*
%TD*%
%TO.C,MX15*%
X137606250Y-136525000D03*
D11*
X142686250Y-136525000D03*
D10*
X147766250Y-136525000D03*
%TD*%
%TO.C,MX4*%
X151922500Y-79375000D03*
D11*
X157002500Y-79375000D03*
D10*
X162082500Y-79375000D03*
%TD*%
D13*
%TO.C,S3*%
X102235000Y-148590000D03*
D11*
X102235000Y-163830000D03*
D13*
X126047500Y-148590000D03*
D11*
X126047500Y-163830000D03*
%TD*%
M02*
