0
SECTION
2
HEADER
9
$INSUNITS
70
4
0
ENDSEC
0
SECTION
2
TABLES
0
TABLE
2
LTYPE
0
LTYPE
72
65
70
64
2
CONTINUOUS
3
______
73
0
40
0
0
ENDTAB
0
TABLE
2
LAYER
0
ENDTAB
0
ENDSEC
0
SECTION
2
ENTITIES
0
LINE
8
0
10
3.025
20
-2.525
11
16.025
21
-2.525
0
LINE
8
0
10
3.025
20
-16.525
11
16.025
21
-16.525
0
LINE
8
0
10
2.525
20
-3.025
11
2.525
21
-16.025
0
LINE
8
0
10
16.525
20
-3.025
11
16.525
21
-16.025
0
ARC
8
0
10
3.025
20
-3.025
40
0.5
50
90
51
180
0
ARC
8
0
10
16.025
20
-3.025
40
0.5
50
0
51
90
0
ARC
8
0
10
3.025
20
-16.025
40
0.5
50
180
51
270
0
ARC
8
0
10
16.025
20
-16.025
40
0.5
50
270
51
0
0
LINE
8
0
10
26.8375
20
-2.525
11
39.8375
21
-2.525
0
LINE
8
0
10
26.8375
20
-16.525
11
39.8375
21
-16.525
0
LINE
8
0
10
26.3375
20
-3.025
11
26.3375
21
-16.025
0
LINE
8
0
10
40.3375
20
-3.025
11
40.3375
21
-16.025
0
ARC
8
0
10
26.8375
20
-3.025
40
0.5
50
90
51
180
0
ARC
8
0
10
39.8375
20
-3.025
40
0.5
50
0
51
90
0
ARC
8
0
10
26.8375
20
-16.025
40
0.5
50
180
51
270
0
ARC
8
0
10
39.8375
20
-16.025
40
0.5
50
270
51
0
0
LINE
8
0
10
22.3375
20
-2.525
11
22.8375
21
-2.525
0
LINE
8
0
10
22.3375
20
-16.525
11
22.8375
21
-16.525
0
LINE
8
0
10
21.8375
20
-3.025
11
21.8375
21
-16.025
0
LINE
8
0
10
23.3375
20
-3.025
11
23.3375
21
-16.025
0
ARC
8
0
10
22.3375
20
-3.025
40
0.5
50
90
51
180
0
ARC
8
0
10
22.8375
20
-3.025
40
0.5
50
0
51
90
0
ARC
8
0
10
22.3375
20
-16.025
40
0.5
50
180
51
270
0
ARC
8
0
10
22.8375
20
-16.025
40
0.5
50
270
51
0
0
LINE
8
0
10
43.8375
20
-2.525
11
44.3375
21
-2.525
0
LINE
8
0
10
43.8375
20
-16.525
11
44.3375
21
-16.525
0
LINE
8
0
10
43.3375
20
-3.025
11
43.3375
21
-16.025
0
LINE
8
0
10
44.8375
20
-3.025
11
44.8375
21
-16.025
0
ARC
8
0
10
43.8375
20
-3.025
40
0.5
50
90
51
180
0
ARC
8
0
10
44.3375
20
-3.025
40
0.5
50
0
51
90
0
ARC
8
0
10
43.8375
20
-16.025
40
0.5
50
180
51
270
0
ARC
8
0
10
44.3375
20
-16.025
40
0.5
50
270
51
0
0
LINE
8
0
10
55.4125
20
-2.525
11
68.4125
21
-2.525
0
LINE
8
0
10
55.4125
20
-16.525
11
68.4125
21
-16.525
0
LINE
8
0
10
54.9125
20
-3.025
11
54.9125
21
-16.025
0
LINE
8
0
10
68.9125
20
-3.025
11
68.9125
21
-16.025
0
ARC
8
0
10
55.4125
20
-3.025
40
0.5
50
90
51
180
0
ARC
8
0
10
68.4125
20
-3.025
40
0.5
50
0
51
90
0
ARC
8
0
10
55.4125
20
-16.025
40
0.5
50
180
51
270
0
ARC
8
0
10
68.4125
20
-16.025
40
0.5
50
270
51
0
0
LINE
8
0
10
50.9125
20
-2.525
11
51.4125
21
-2.525
0
LINE
8
0
10
50.9125
20
-16.525
11
51.4125
21
-16.525
0
LINE
8
0
10
50.4125
20
-3.025
11
50.4125
21
-16.025
0
LINE
8
0
10
51.9125
20
-3.025
11
51.9125
21
-16.025
0
ARC
8
0
10
50.9125
20
-3.025
40
0.5
50
90
51
180
0
ARC
8
0
10
51.4125
20
-3.025
40
0.5
50
0
51
90
0
ARC
8
0
10
50.9125
20
-16.025
40
0.5
50
180
51
270
0
ARC
8
0
10
51.4125
20
-16.025
40
0.5
50
270
51
0
0
LINE
8
0
10
72.4125
20
-2.525
11
72.9125
21
-2.525
0
LINE
8
0
10
72.4125
20
-16.525
11
72.9125
21
-16.525
0
LINE
8
0
10
71.9125
20
-3.025
11
71.9125
21
-16.025
0
LINE
8
0
10
73.4125
20
-3.025
11
73.4125
21
-16.025
0
ARC
8
0
10
72.4125
20
-3.025
40
0.5
50
90
51
180
0
ARC
8
0
10
72.9125
20
-3.025
40
0.5
50
0
51
90
0
ARC
8
0
10
72.4125
20
-16.025
40
0.5
50
180
51
270
0
ARC
8
0
10
72.9125
20
-16.025
40
0.5
50
270
51
0
0
LINE
8
0
10
3.025
20
-21.575
11
16.025
21
-21.575
0
LINE
8
0
10
3.025
20
-35.575
11
16.025
21
-35.575
0
LINE
8
0
10
2.525
20
-22.075
11
2.525
21
-35.075
0
LINE
8
0
10
16.525
20
-22.075
11
16.525
21
-35.075
0
ARC
8
0
10
3.025
20
-22.075
40
0.5
50
90
51
180
0
ARC
8
0
10
16.025
20
-22.075
40
0.5
50
0
51
90
0
ARC
8
0
10
3.025
20
-35.075
40
0.5
50
180
51
270
0
ARC
8
0
10
16.025
20
-35.075
40
0.5
50
270
51
0
0
LINE
8
0
10
22.075
20
-21.575
11
35.075
21
-21.575
0
LINE
8
0
10
22.075
20
-35.575
11
35.075
21
-35.575
0
LINE
8
0
10
21.575
20
-22.075
11
21.575
21
-35.075
0
LINE
8
0
10
35.575
20
-22.075
11
35.575
21
-35.075
0
ARC
8
0
10
22.075
20
-22.075
40
0.5
50
90
51
180
0
ARC
8
0
10
35.075
20
-22.075
40
0.5
50
0
51
90
0
ARC
8
0
10
22.075
20
-35.075
40
0.5
50
180
51
270
0
ARC
8
0
10
35.075
20
-35.075
40
0.5
50
270
51
0
0
LINE
8
0
10
41.125
20
-21.575
11
54.125
21
-21.575
0
LINE
8
0
10
41.125
20
-35.575
11
54.125
21
-35.575
0
LINE
8
0
10
40.625
20
-22.075
11
40.625
21
-35.075
0
LINE
8
0
10
54.625
20
-22.075
11
54.625
21
-35.075
0
ARC
8
0
10
41.125
20
-22.075
40
0.5
50
90
51
180
0
ARC
8
0
10
54.125
20
-22.075
40
0.5
50
0
51
90
0
ARC
8
0
10
41.125
20
-35.075
40
0.5
50
180
51
270
0
ARC
8
0
10
54.125
20
-35.075
40
0.5
50
270
51
0
0
LINE
8
0
10
60.175
20
-21.575
11
73.175
21
-21.575
0
LINE
8
0
10
60.175
20
-35.575
11
73.175
21
-35.575
0
LINE
8
0
10
59.675
20
-22.075
11
59.675
21
-35.075
0
LINE
8
0
10
73.675
20
-22.075
11
73.675
21
-35.075
0
ARC
8
0
10
60.175
20
-22.075
40
0.5
50
90
51
180
0
ARC
8
0
10
73.175
20
-22.075
40
0.5
50
0
51
90
0
ARC
8
0
10
60.175
20
-35.075
40
0.5
50
180
51
270
0
ARC
8
0
10
73.175
20
-35.075
40
0.5
50
270
51
0
0
LINE
8
0
10
3.025
20
-40.625
11
16.025
21
-40.625
0
LINE
8
0
10
3.025
20
-54.625
11
16.025
21
-54.625
0
LINE
8
0
10
2.525
20
-41.125
11
2.525
21
-54.125
0
LINE
8
0
10
16.525
20
-41.125
11
16.525
21
-54.125
0
ARC
8
0
10
3.025
20
-41.125
40
0.5
50
90
51
180
0
ARC
8
0
10
16.025
20
-41.125
40
0.5
50
0
51
90
0
ARC
8
0
10
3.025
20
-54.125
40
0.5
50
180
51
270
0
ARC
8
0
10
16.025
20
-54.125
40
0.5
50
270
51
0
0
LINE
8
0
10
22.075
20
-40.625
11
35.075
21
-40.625
0
LINE
8
0
10
22.075
20
-54.625
11
35.075
21
-54.625
0
LINE
8
0
10
21.575
20
-41.125
11
21.575
21
-54.125
0
LINE
8
0
10
35.575
20
-41.125
11
35.575
21
-54.125
0
ARC
8
0
10
22.075
20
-41.125
40
0.5
50
90
51
180
0
ARC
8
0
10
35.075
20
-41.125
40
0.5
50
0
51
90
0
ARC
8
0
10
22.075
20
-54.125
40
0.5
50
180
51
270
0
ARC
8
0
10
35.075
20
-54.125
40
0.5
50
270
51
0
0
LINE
8
0
10
41.125
20
-40.625
11
54.125
21
-40.625
0
LINE
8
0
10
41.125
20
-54.625
11
54.125
21
-54.625
0
LINE
8
0
10
40.625
20
-41.125
11
40.625
21
-54.125
0
LINE
8
0
10
54.625
20
-41.125
11
54.625
21
-54.125
0
ARC
8
0
10
41.125
20
-41.125
40
0.5
50
90
51
180
0
ARC
8
0
10
54.125
20
-41.125
40
0.5
50
0
51
90
0
ARC
8
0
10
41.125
20
-54.125
40
0.5
50
180
51
270
0
ARC
8
0
10
54.125
20
-54.125
40
0.5
50
270
51
0
0
LINE
8
0
10
60.175
20
-40.625
11
73.175
21
-40.625
0
LINE
8
0
10
60.175
20
-54.625
11
73.175
21
-54.625
0
LINE
8
0
10
59.675
20
-41.125
11
59.675
21
-54.125
0
LINE
8
0
10
73.675
20
-41.125
11
73.675
21
-54.125
0
ARC
8
0
10
60.175
20
-41.125
40
0.5
50
90
51
180
0
ARC
8
0
10
73.175
20
-41.125
40
0.5
50
0
51
90
0
ARC
8
0
10
60.175
20
-54.125
40
0.5
50
180
51
270
0
ARC
8
0
10
73.175
20
-54.125
40
0.5
50
270
51
0
0
LINE
8
0
10
3.025
20
-59.675
11
16.025
21
-59.675
0
LINE
8
0
10
3.025
20
-73.675
11
16.025
21
-73.675
0
LINE
8
0
10
2.525
20
-60.175
11
2.525
21
-73.175
0
LINE
8
0
10
16.525
20
-60.175
11
16.525
21
-73.175
0
ARC
8
0
10
3.025
20
-60.175
40
0.5
50
90
51
180
0
ARC
8
0
10
16.025
20
-60.175
40
0.5
50
0
51
90
0
ARC
8
0
10
3.025
20
-73.175
40
0.5
50
180
51
270
0
ARC
8
0
10
16.025
20
-73.175
40
0.5
50
270
51
0
0
LINE
8
0
10
22.075
20
-59.675
11
35.075
21
-59.675
0
LINE
8
0
10
22.075
20
-73.675
11
35.075
21
-73.675
0
LINE
8
0
10
21.575
20
-60.175
11
21.575
21
-73.175
0
LINE
8
0
10
35.575
20
-60.175
11
35.575
21
-73.175
0
ARC
8
0
10
22.075
20
-60.175
40
0.5
50
90
51
180
0
ARC
8
0
10
35.075
20
-60.175
40
0.5
50
0
51
90
0
ARC
8
0
10
22.075
20
-73.175
40
0.5
50
180
51
270
0
ARC
8
0
10
35.075
20
-73.175
40
0.5
50
270
51
0
0
LINE
8
0
10
41.125
20
-59.675
11
54.125
21
-59.675
0
LINE
8
0
10
41.125
20
-73.675
11
54.125
21
-73.675
0
LINE
8
0
10
40.625
20
-60.175
11
40.625
21
-73.175
0
LINE
8
0
10
54.625
20
-60.175
11
54.625
21
-73.175
0
ARC
8
0
10
41.125
20
-60.175
40
0.5
50
90
51
180
0
ARC
8
0
10
54.125
20
-60.175
40
0.5
50
0
51
90
0
ARC
8
0
10
41.125
20
-73.175
40
0.5
50
180
51
270
0
ARC
8
0
10
54.125
20
-73.175
40
0.5
50
270
51
0
0
LINE
8
0
10
73.675
20
-69.7
11
73.675
21
-82.7
0
LINE
8
0
10
59.675
20
-69.7
11
59.675
21
-82.7
0
LINE
8
0
10
73.175
20
-69.2
11
60.175
21
-69.2
0
LINE
8
0
10
73.175
20
-83.2
11
60.175
21
-83.2
0
ARC
8
0
10
73.175
20
-69.7
40
0.5
50
0
51
90
0
ARC
8
0
10
73.175
20
-82.7
40
0.5
50
270
51
0
0
ARC
8
0
10
60.175
20
-69.7
40
0.5
50
90
51
180
0
ARC
8
0
10
60.175
20
-82.7
40
0.5
50
180
51
270
0
LINE
8
0
10
72.675
20
-61.262
11
72.675
21
-67.262
0
LINE
8
0
10
57.675
20
-61.262
11
57.675
21
-67.262
0
LINE
8
0
10
72.175
20
-60.762
11
58.175
21
-60.762
0
LINE
8
0
10
72.175
20
-67.762
11
58.175
21
-67.762
0
ARC
8
0
10
72.175
20
-61.262
40
0.5
50
0
51
90
0
ARC
8
0
10
72.175
20
-67.262
40
0.5
50
270
51
0
0
ARC
8
0
10
58.175
20
-61.262
40
0.5
50
90
51
180
0
ARC
8
0
10
58.175
20
-67.262
40
0.5
50
180
51
270
0
LINE
8
0
10
72.675
20
-85.138
11
72.675
21
-91.138
0
LINE
8
0
10
57.675
20
-85.138
11
57.675
21
-91.138
0
LINE
8
0
10
72.175
20
-84.638
11
58.175
21
-84.638
0
LINE
8
0
10
72.175
20
-91.638
11
58.175
21
-91.638
0
ARC
8
0
10
72.175
20
-85.138
40
0.5
50
0
51
90
0
ARC
8
0
10
72.175
20
-91.138
40
0.5
50
270
51
0
0
ARC
8
0
10
58.175
20
-85.138
40
0.5
50
90
51
180
0
ARC
8
0
10
58.175
20
-91.138
40
0.5
50
180
51
270
0
LINE
8
0
10
12.55
20
-78.725
11
25.55
21
-78.725
0
LINE
8
0
10
12.55
20
-92.725
11
25.55
21
-92.725
0
LINE
8
0
10
12.05
20
-79.225
11
12.05
21
-92.225
0
LINE
8
0
10
26.05
20
-79.225
11
26.05
21
-92.225
0
ARC
8
0
10
12.55
20
-79.225
40
0.5
50
90
51
180
0
ARC
8
0
10
25.55
20
-79.225
40
0.5
50
0
51
90
0
ARC
8
0
10
12.55
20
-92.225
40
0.5
50
180
51
270
0
ARC
8
0
10
25.55
20
-92.225
40
0.5
50
270
51
0
0
LINE
8
0
10
4.112
20
-79.725
11
10.112
21
-79.725
0
LINE
8
0
10
4.112
20
-94.725
11
10.112
21
-94.725
0
LINE
8
0
10
3.612
20
-80.225
11
3.612
21
-94.225
0
LINE
8
0
10
10.612
20
-80.225
11
10.612
21
-94.225
0
ARC
8
0
10
4.112
20
-80.225
40
0.5
50
90
51
180
0
ARC
8
0
10
10.112
20
-80.225
40
0.5
50
0
51
90
0
ARC
8
0
10
4.112
20
-94.225
40
0.5
50
180
51
270
0
ARC
8
0
10
10.112
20
-94.225
40
0.5
50
270
51
0
0
LINE
8
0
10
27.988
20
-79.725
11
33.988
21
-79.725
0
LINE
8
0
10
27.988
20
-94.725
11
33.988
21
-94.725
0
LINE
8
0
10
27.488
20
-80.225
11
27.488
21
-94.225
0
LINE
8
0
10
34.488
20
-80.225
11
34.488
21
-94.225
0
ARC
8
0
10
27.988
20
-80.225
40
0.5
50
90
51
180
0
ARC
8
0
10
33.988
20
-80.225
40
0.5
50
0
51
90
0
ARC
8
0
10
27.988
20
-94.225
40
0.5
50
180
51
270
0
ARC
8
0
10
33.988
20
-94.225
40
0.5
50
270
51
0
0
LINE
8
0
10
41.125
20
-78.725
11
54.125
21
-78.725
0
LINE
8
0
10
41.125
20
-92.725
11
54.125
21
-92.725
0
LINE
8
0
10
40.625
20
-79.225
11
40.625
21
-92.225
0
LINE
8
0
10
54.625
20
-79.225
11
54.625
21
-92.225
0
ARC
8
0
10
41.125
20
-79.225
40
0.5
50
90
51
180
0
ARC
8
0
10
54.125
20
-79.225
40
0.5
50
0
51
90
0
ARC
8
0
10
41.125
20
-92.225
40
0.5
50
180
51
270
0
ARC
8
0
10
54.125
20
-92.225
40
0.5
50
270
51
0
0
LINE
8
0
10
0
20
-95.25
11
76.2
21
-95.25
0
LINE
8
0
10
0
20
0
11
76.2
21
0
0
LINE
8
0
10
0
20
-95.25
11
0
21
0
0
LINE
8
0
10
76.2
20
-95.25
11
76.2
21
0
0
ENDSEC
0
EOF